<svg xmlns="http://www.w3.org/2000/svg" width="16" height="16" viewBox="0 0 256 256"><path d="M252 95.973v109.884c0 12.18-9.964 22.143-22.143 22.143H26.143C13.963 228 4 218.036 4 205.857V95.973c4.152 4.567 8.857 8.58 13.978 12.04 22.973 15.64 46.223 31.277 68.78 47.746 11.626 8.58 26.02 19.097 41.104 19.097h.276c15.085 0 29.478-10.518 41.103-19.098 22.56-16.33 45.81-32.108 68.92-47.747 4.983-3.46 9.688-7.473 13.84-12.04zm0-40.687c0 15.5-11.487 29.477-23.665 37.92-21.59 14.946-43.317 29.892-64.768 44.977-8.996 6.228-24.22 18.96-35.43 18.96h-.275c-11.21 0-26.433-12.732-35.43-18.96-21.45-15.085-43.178-30.03-64.628-44.978C17.978 86.562 4 70.925 4 58.33c0-13.562 7.335-25.187 22.143-25.187h203.714c12.04 0 22.143 9.964 22.143 22.143z" fill="#777"/></svg>
