<svg xmlns="http://www.w3.org/2000/svg" width="16" height="16" viewBox="0 0 256 256"><path d="M98.56 163.028c0 11.242-5.852 29.568-19.712 29.568s-19.712-18.326-19.712-29.568 5.852-29.568 19.712-29.568 19.712 18.326 19.712 29.568zm98.56 0c0 11.242-5.852 29.568-19.712 29.568s-19.712-18.326-19.712-29.568 5.852-29.568 19.712-29.568 19.712 18.326 19.712 29.568zm24.64 0c0-23.562-14.322-44.352-39.424-44.352-10.164 0-19.866 1.848-30.03 3.234-8.008 1.232-16.016 1.694-24.178 1.694-8.162 0-16.17-.462-24.178-1.694-10.01-1.386-19.866-3.234-30.03-3.234-25.102 0-39.424 20.79-39.424 44.352 0 47.124 43.12 54.362 80.696 54.362h25.872c37.576 0 80.696-7.238 80.696-54.362zm34.496-27.104c0 17.094-1.694 35.266-9.394 50.974-20.328 41.118-76.23 45.122-116.27 45.122-40.656 0-99.946-3.542-121.044-45.122C1.694 171.344 0 153.018 0 135.924 0 113.44 6.16 92.188 20.944 74.94c-2.772-8.47-4.158-17.402-4.158-26.18 0-11.55 2.618-23.1 7.854-33.572 24.332 0 39.886 10.626 58.366 25.102 15.554-3.696 31.57-5.39 47.586-5.39 14.476 0 29.106 1.54 43.12 4.928 18.326-14.322 33.88-24.64 57.904-24.64 5.236 10.472 7.854 22.022 7.854 33.572 0 8.778-1.386 17.556-4.158 25.872 14.784 17.402 20.944 38.808 20.944 61.292z" fill="#777"/></svg>
