<svg xmlns="http://www.w3.org/2000/svg" width="16" height="16" viewBox="0 0 256 256"><path d="M255.293 49.264c-7.128 10.368-16.038 19.602-26.244 27.054.16 2.268.16 4.536.16 6.804C229.21 152.296 176.56 232 80.334 232c-29.646 0-57.186-8.586-80.352-23.49 4.213.486 8.263.648 12.637.648 24.462 0 46.98-8.262 64.962-22.356-23.005-.486-42.283-15.552-48.925-36.288 3.24.486 6.48.81 9.882.81 4.698 0 9.396-.648 13.77-1.782-23.976-4.86-41.958-25.92-41.958-51.354v-.648c6.965 3.888 15.065 6.318 23.65 6.642-14.093-9.396-23.327-25.434-23.327-43.578 0-9.72 2.592-18.63 7.128-26.406C43.56 65.95 82.278 86.686 125.694 88.954c-.81-3.888-1.296-7.938-1.296-11.988 0-28.836 23.328-52.326 52.326-52.326 15.066 0 28.674 6.318 38.232 16.524 11.826-2.268 23.166-6.642 33.21-12.636-3.888 12.15-12.15 22.356-23.004 28.836 10.53-1.134 20.737-4.05 30.133-8.1z" fill="#777"/></svg>
