<?xml version="1.0" encoding="UTF-8" standalone="no"?>
<!-- Created with Inkscape (http://www.inkscape.org/) -->

<svg
   xmlns:dc="http://purl.org/dc/elements/1.1/"
   xmlns:cc="http://creativecommons.org/ns#"
   xmlns:rdf="http://www.w3.org/1999/02/22-rdf-syntax-ns#"
   xmlns:svg="http://www.w3.org/2000/svg"
   xmlns="http://www.w3.org/2000/svg"
   xmlns:sodipodi="http://sodipodi.sourceforge.net/DTD/sodipodi-0.dtd"
   xmlns:inkscape="http://www.inkscape.org/namespaces/inkscape"
   width="5200"
   height="2200"
   viewBox="0 0 5200 2200"
   id="svg2"
   version="1.1"
   inkscape:version="0.91 r13725"
   sodipodi:docname="2016-04-27-u0065.svg"
   inkscape:export-filename="/home/i/repos/fontuni/fontuni.github.io/_glyphs/f0nt/2016-04-27-u0065.png"
   inkscape:export-xdpi="22.5"
   inkscape:export-ydpi="22.5">
  <sodipodi:namedview
     id="base"
     pagecolor="#ffffff"
     bordercolor="#666666"
     borderopacity="1.0"
     inkscape:pageopacity="0.0"
     inkscape:pageshadow="2"
     inkscape:zoom="0.080024387"
     inkscape:cx="2150.9126"
     inkscape:cy="797.49998"
     inkscape:document-units="px"
     inkscape:current-layer="layer1"
     showgrid="false"
     units="px"
     showborder="true"
     inkscape:window-width="1366"
     inkscape:window-height="718"
     inkscape:window-x="0"
     inkscape:window-y="24"
     inkscape:window-maximized="1"
     inkscape:showpageshadow="false"
     borderlayer="false" />
  <defs
     id="defs4" />
  <metadata
     id="metadata7">
    <rdf:RDF>
      <cc:Work
         rdf:about="">
        <dc:format>image/svg+xml</dc:format>
        <dc:type
           rdf:resource="http://purl.org/dc/dcmitype/StillImage" />
        <dc:title />
      </cc:Work>
    </rdf:RDF>
  </metadata>
  <g
     inkscape:groupmode="layer"
     id="layer2"
     inkscape:label="bg"
     transform="translate(0,200)"
     sodipodi:insensitive="true">
    <flowRoot
       xml:space="preserve"
       id="flowRoot3349"
       style="font-style:normal;font-weight:normal;font-size:40px;line-height:125%;font-family:sans-serif;letter-spacing:0px;word-spacing:0px;fill:#000000;fill-opacity:1;stroke:none;stroke-width:1px;stroke-linecap:butt;stroke-linejoin:miter;stroke-opacity:1"><flowRegion
         id="flowRegion3351"><rect
           id="rect3353"
           width="5718.6768"
           height="2181.8245"
           x="-145.45497"
           y="-59.336136" /></flowRegion><flowPara
         id="flowPara3355" /></flowRoot>    <path
       style="fill:#ffffff;fill-opacity:1;stroke:none"
       d="m 0,-200 5200,0 0,2200 -5200,0 z"
       id="rect3357"
       inkscape:connector-curvature="0" />
  </g>
  <g
     transform="translate(0,1147.6378)"
     id="layer1"
     inkscape:groupmode="layer"
     inkscape:label="u0065">
    <g
       transform="matrix(1,0,0,-1,1036,52.36216)"
       id="g7178" />
    <g
       transform="matrix(1,0,0,-1,0,397.36216)"
       id="g7216" />
    <g
       style="fill:#000000"
       id="g7228"
       transform="matrix(1,0,0,-1,1036,52.36216)" />
    <g
       style="fill:#000000"
       id="g7232"
       transform="matrix(1,0,0,-1,0,397.36216)" />
    <path
       style="fill:#000000"
       d="m 4617,-869.1378 c -232,0 -402,135.99999 -402,358 0,193 127,280 305,280 165,0 322,-68 390,-133 -21,-10 -75,-28 -99,-32 -53,46 -163,99 -256,99 -77.1633,0 -173.4324,-33.8245 -199.3262,-160.06445 C 4578.3174,-475.28902 4863,-532.25667 4863,-712.1378 c 0,-51 -39,-157 -246,-157 z m -1011,1 c -228,0 -391,138.99999 -391,356 0,197 132,280 301,280 158,0 311,-66 379,-128 -17,-8 -60,-22 -79,-26 -55,47 -172,101 -274,101 -87.5627,0 -191.2228,-39.1065 -215.6543,-175.7207 C 3546.0443,-476.67086 3846,-527.17893 3846,-713.1378 c 0,-52 -42,-155 -240,-155 z m -1011,1 c -223,0 -380,142.99999 -380,354 0,200 136,280 296,280 150,0 302,-64 369,-123 -13,-7 -44,-18 -59,-21 -57,47 -182,104 -292,104 -97.7937,0 -208.2272,-44.2701 -231.5332,-190.41211 C 2512.9222,-476.82976 2830,-521.86149 2830,-714.1378 c 0,-53 -45,-153 -235,-153 z m -1011,1 c -219,0 -369,144.99999 -369,351 0,204 140,281 292,281 143,0 291,-62 358,-118 -9,-5 -29,-12 -39,-15 -58,48 -190,105 -309,105 -108.631,0 -227.0905,-49.1752 -248.5625,-205.37891 C 1477.6674,-479.02495 1813,-515.74448 1813,-715.1378 c 0,-54 -48,-151 -229,-151 z m -1011,1 c -215,0 -358,148.99999 -358,349 0,207 144,281 287,281 136,0 281,-60 348,-113 -5,-3 -14,-7 -19,-9 -60,48 -199,107 -327,107 -119.21617,0 -244.31512,-55.51 -264.25,-220.50391 C 440.74364,-481.02582 797,-509.48166 797,-716.1378 c 0,-55 -51,-149 -224,-149 z m -2,15 c 156,0 206,86 206,137 0,186.5954 -349.2184,218.56345 -538.75586,227.39844 C 237.42411,-496.12839 237,-506.92224 237,-518.1378 c 0,-188.00001 133,-332 334,-332 z m 1004,12 c 141,0 190,80 190,130 0,171.13782 -301.8377,204.85592 -499.1602,214.63867 -0.5525,-8.58977 -0.8398,-17.46407 -0.8398,-26.63867 0,-179.00001 125,-318 310,-318 z m 1005,11 c 126,0 173,74 173,123 0,156.29508 -259.1068,191.11931 -459.4355,202.59375 -0.3594,-7.00796 -0.5645,-14.18817 -0.5645,-21.59375 0,-170.00001 118,-304 287,-304 z m 1004,12 c 111,0 157,67 157,116 0,142.4494 -220.2724,176.78033 -419.7285,188.75586 -0.1683,-4.82945 -0.2715,-9.73312 -0.2715,-14.75586 0,-161.00001 110,-290 263,-290 z m 1004,12 c 96,0 141,60 141,108 0,128.95012 -184.6823,163.24693 -379.8887,176.47656 -0.069,-3.12075 -0.1113,-6.27292 -0.1113,-9.47656 0,-152 102,-275 239,-275 z m 84,929 c -253,0 -457,120 -457,370 0,176 107,278 328,278 201,0 373,-78 442,-159 -41,-19 -150,-53 -198,-60 -45,44 -120,90 -169,90 -30.4921,0 -88.8691,-12.2166 -114.9023,-90.666 C 4724.9654,522.5888 4945,444.5333 4945,291.8622 c 0,-46 -24,-166 -273,-166 z m -1011,1 c -249,0 -446,124 -446,368 0,179 111,278 323,278 194,0 363,-76 432,-154 -37,-17 -135,-48 -178,-54 -47,44 -129,92 -187,92 -39.1264,0 -104.5793,-16.5409 -131.1992,-104.2344 C 3697.4126,523.5508 3929,448.4436 3929,290.8622 c 0,-47 -27,-164 -268,-164 z m -1011,1 c -245,0 -435,126 -435,365 0,183 115,279 319,279 187,0 352,-74.0001 421,-149 -33,-15 -120,-42 -158,-48 -48,45 -137,93 -204,93 -48.3266,0 -121.9416,-20.1328 -148.7617,-117.832 C 2668.7736,523.8071 2912,452.7894 2912,289.8622 c 0,-48 -30,-162 -262,-162 z m -1011,1 c -240,0 -424,130 -424,363 0,186 119,279 314,279 179,0 343,-72.0001 411,-144 -29,-14 -104,-38 -138,-43 -50,45 -147,96 -222,96 -57.584,0 -138.1635,-24.3827 -164.9414,-131.5586 C 1639.8915,524.9256 1896,457.0403 1896,288.8622 c 0,-49 -33,-160 -257,-160 z m -1011,1 c -236,0 -413,133 -413,361 0,190 124,279 310,279 172,0 332,-70 400,-139 -25,-12 -89,-32 -118,-37 -52,46 -156,98 -240,98 -67.44667,0 -155.50322,-29.1468 -181.47852,-146.7578 C 609.65503,524.3892 879,461.5859 879,287.8622 c 0,-50 -36,-158 -251,-158 z m -35,78 c 80,0 125,55 125,102 0,116.7509 -152.5372,149.9691 -339.9668,163.4316 -0.009,-1.1463 -0.0332,-2.2739 -0.0332,-3.4316 0,-143 93,-262 215,-262 z m 1004,12 c 65,0 109,48 109,94 0,104.1937 -122.4624,136.5654 -299.9785,150.877 0.8935,-133.0668 85.5397,-244.877 190.9785,-244.877 z m 1004,12 c 50,0 93,41 93,87 0,92.2127 -94.5324,122.697 -259.8477,136.8301 3.6502,-121.0637 79.0571,-223.8301 166.8477,-223.8301 z m 1005,11 c 35,0 76,35 76,80 0,80.4076 -69.3653,109.4033 -219.5996,123.9688 5.6975,-109.7191 72.8137,-203.9688 143.5996,-203.9688 z m 1004,12 c 20,0 60,29 60,73 0,69.0685 -46.3599,96.2145 -179.166,110.5293 7.5107,-98.285 65.0729,-183.5293 119.166,-183.5293 z"
       id="path4504"
       inkscape:connector-curvature="0" />
  </g>
</svg>
