<?xml version="1.0" encoding="UTF-8" standalone="no"?>
<!-- Created with Inkscape (http://www.inkscape.org/) -->

<svg
   xmlns:dc="http://purl.org/dc/elements/1.1/"
   xmlns:cc="http://creativecommons.org/ns#"
   xmlns:rdf="http://www.w3.org/1999/02/22-rdf-syntax-ns#"
   xmlns:svg="http://www.w3.org/2000/svg"
   xmlns="http://www.w3.org/2000/svg"
   xmlns:sodipodi="http://sodipodi.sourceforge.net/DTD/sodipodi-0.dtd"
   xmlns:inkscape="http://www.inkscape.org/namespaces/inkscape"
   width="5200"
   height="2200"
   viewBox="0 0 5200 2200"
   id="svg2"
   version="1.1"
   inkscape:version="0.91 r13725"
   sodipodi:docname="2016-04-27-u006F.svg"
   inkscape:export-filename="/home/i/repos/fontuni/fontuni.github.io/_glyphs/f0nt/2016-04-27-u006F.png"
   inkscape:export-xdpi="22.5"
   inkscape:export-ydpi="22.5">
  <sodipodi:namedview
     id="base"
     pagecolor="#ffffff"
     bordercolor="#666666"
     borderopacity="1.0"
     inkscape:pageopacity="0.0"
     inkscape:pageshadow="2"
     inkscape:zoom="0.080024387"
     inkscape:cx="2960.8161"
     inkscape:cy="1297.3476"
     inkscape:document-units="px"
     inkscape:current-layer="layer1"
     showgrid="false"
     units="px"
     showborder="true"
     inkscape:window-width="1366"
     inkscape:window-height="718"
     inkscape:window-x="0"
     inkscape:window-y="24"
     inkscape:window-maximized="1"
     inkscape:showpageshadow="false"
     borderlayer="false" />
  <defs
     id="defs4" />
  <metadata
     id="metadata7">
    <rdf:RDF>
      <cc:Work
         rdf:about="">
        <dc:format>image/svg+xml</dc:format>
        <dc:type
           rdf:resource="http://purl.org/dc/dcmitype/StillImage" />
        <dc:title></dc:title>
      </cc:Work>
    </rdf:RDF>
  </metadata>
  <g
     inkscape:groupmode="layer"
     id="layer2"
     inkscape:label="bg"
     transform="translate(0,200)"
     sodipodi:insensitive="true">
    <flowRoot
       xml:space="preserve"
       id="flowRoot3349"
       style="font-style:normal;font-weight:normal;font-size:40px;line-height:125%;font-family:sans-serif;letter-spacing:0px;word-spacing:0px;fill:#000000;fill-opacity:1;stroke:none;stroke-width:1px;stroke-linecap:butt;stroke-linejoin:miter;stroke-opacity:1"><flowRegion
         id="flowRegion3351"><rect
           id="rect3353"
           width="5718.6768"
           height="2181.8245"
           x="-145.45497"
           y="-59.336136" /></flowRegion><flowPara
         id="flowPara3355" /></flowRoot>    <path
       style="fill:#ffffff;fill-opacity:1;stroke:none"
       d="m 0,-200 5200,0 0,2200 -5200,0 z"
       id="rect3357"
       inkscape:connector-curvature="0" />
  </g>
  <g
     transform="translate(0,1147.6378)"
     id="layer1"
     inkscape:groupmode="layer"
     inkscape:label="u006F">
    <g
       transform="matrix(1,0,0,-1,1036,52.36216)"
       id="g7178" />
    <g
       transform="matrix(1,0,0,-1,0,397.36216)"
       id="g7216" />
    <g
       style="fill:#000000"
       id="g7228"
       transform="matrix(1,0,0,-1,1036,52.36216)" />
    <g
       style="fill:#000000"
       id="g7232"
       transform="matrix(1,0,0,-1,0,397.36216)" />
    <path
       style="fill:#000000"
       d="m 4614,-869.1378 c -216,0 -419,132 -419,350 0,156 111,288 308,288 201,0 427,-117 427,-345 0,-163 -114,-293 -316,-293 z m -1011,1 c -213,0 -408,134 -408,348 0,159 115,288 303,288 197,0 417,-116 417,-342 0,-166 -118,-294 -312,-294 z m -1011,1 c -211,0 -397,135 -397,345 0,162 120,289 299,289 194,0 406,-116 406,-339 0,-169 -122,-295 -308,-295 z m -1010,1 c -208,0 -387,136 -387,343 0,164 123,289 294,289 190,0 396,-116 396,-337 0,-171 -126,-295 -303,-295 z m -1011,1 c -205.00003,0 -376,137 -376,340 0,167 128,290 290,290 186.00003,0 385,-115 385,-334 0,-174 -130,-296 -299,-296 z m -3,16 c 158,0 281,113 281,280 0,201 -177.99997,318 -362,318 -151,0 -271,-114 -271,-274 0,-194 159.99997,-324 352,-324 z m 1003,11 c 146,0 265,107 265,271 0,189 -165,305 -337,305 -139,0 -255,-108 -255,-265 0,-184 149,-311 327,-311 z m 1003,12 c 133,0 249,101 249,262 0,177 -153,290 -312,290 -127,0 -239,-101 -239,-256 0,-174 138,-296 302,-296 z m 1003,11 c 121,0 232,94 232,253 0,164 -138,277 -285,277 -115,0 -223,-95 -223,-247 0,-165 126,-283 276,-283 z m 1003,12 c 108,0 216,87 216,243 0,152 -125,263 -260,263 -103,0 -207,-88 -207,-238 0,-155 115,-268 251,-268 z m 87,929 c -230.0003,0 -472,127 -472,363 0,143 90,285 330,285 220.0003,0 480,-119 480,-358 0,-150 -94,-290 -338,-290 z m -1011,1 c -227,0 -461,128 -461,360 0,146 95,286 326,286 216,0 469,-118 469,-355 0,-153 -98,-291 -334,-291 z m -1010,1 c -224,0 -451,129 -451,358 0,148 98,286 321,286 212,0 459,-118 459,-353 0,-155 -102,-291 -329,-291 z m -1011,1 c -222,0 -440,130 -440,355 0,151 103,287 317,287 209,0 448,-118 448,-350 0,-158 -106,-292 -325,-292 z m -1011,1 c -219,0 -429,132 -429,353 0,154 107,287 312,287 205,0 438,-117 438,-347 0,-161 -110,-293 -321,-293 z m -42,78 c 96,0 201,82 201,235 0,140 -113,249 -235,249 -91,0 -191,-82 -191,-229 0,-145 104,-255 225,-255 z m 1003,12 c 83,0 185,75 185,225 0,128 -100,235 -210,235 -79,0 -175,-75 -175,-220 0,-135 93,-240 200,-240 z m 1003,11 c 71,0 168,68 168,216 0,115 -85,222 -183,222 -67,0 -159,-69 -159,-211 0,-126 81,-227 174,-227 z m 1003,12 c 58,0 152,62 152,207 0,103 -73,207 -158,207 -55,0 -143,-62 -143,-202 0,-116 70,-212 149,-212 z m 1003,11 c 46,0 136,56 136,198 0,91 -60,194 -133,194 -43,0 -127,-56 -127,-193 0,-106 58.9997,-199 124,-199 z"
       id="path5212"
       inkscape:connector-curvature="0" />
  </g>
</svg>
