<?xml version="1.0" encoding="UTF-8" standalone="no"?>
<!-- Created with Inkscape (http://www.inkscape.org/) -->

<svg
   xmlns:dc="http://purl.org/dc/elements/1.1/"
   xmlns:cc="http://creativecommons.org/ns#"
   xmlns:rdf="http://www.w3.org/1999/02/22-rdf-syntax-ns#"
   xmlns:svg="http://www.w3.org/2000/svg"
   xmlns="http://www.w3.org/2000/svg"
   xmlns:sodipodi="http://sodipodi.sourceforge.net/DTD/sodipodi-0.dtd"
   xmlns:inkscape="http://www.inkscape.org/namespaces/inkscape"
   width="6300"
   height="2400"
   viewBox="0 0 6300 2400"
   id="svg2"
   version="1.1"
   inkscape:version="0.91 r13725"
   sodipodi:docname="2016-04-05-u0042.svg"
   inkscape:export-filename="/home/i/repos/fontuni/fontuni.github.io/_glyphs/f0nt/2016-04-05-u0042.png"
   inkscape:export-xdpi="22.5"
   inkscape:export-ydpi="22.5">
  <sodipodi:namedview
     id="base"
     pagecolor="#ffffff"
     bordercolor="#666666"
     borderopacity="1.0"
     inkscape:pageopacity="0.0"
     inkscape:pageshadow="2"
     inkscape:zoom="0.080024387"
     inkscape:cx="2029.8498"
     inkscape:cy="2796.8905"
     inkscape:document-units="px"
     inkscape:current-layer="layer1"
     showgrid="false"
     units="px"
     showborder="true"
     inkscape:window-width="1366"
     inkscape:window-height="718"
     inkscape:window-x="0"
     inkscape:window-y="24"
     inkscape:window-maximized="1"
     inkscape:showpageshadow="false"
     borderlayer="false" />
  <defs
     id="defs4" />
  <metadata
     id="metadata7">
    <rdf:RDF>
      <cc:Work
         rdf:about="">
        <dc:format>image/svg+xml</dc:format>
        <dc:type
           rdf:resource="http://purl.org/dc/dcmitype/StillImage" />
        <dc:title></dc:title>
      </cc:Work>
    </rdf:RDF>
  </metadata>
  <g
     inkscape:groupmode="layer"
     id="layer2"
     inkscape:label="bg"
     transform="translate(0,400)"
     sodipodi:insensitive="true">
    <flowRoot
       xml:space="preserve"
       id="flowRoot3349"
       style="font-style:normal;font-weight:normal;font-size:40px;line-height:125%;font-family:sans-serif;letter-spacing:0px;word-spacing:0px;fill:#000000;fill-opacity:1;stroke:none;stroke-width:1px;stroke-linecap:butt;stroke-linejoin:miter;stroke-opacity:1"><flowRegion
         id="flowRegion3351"><rect
           id="rect3353"
           width="5718.6768"
           height="2181.8245"
           x="-145.45497"
           y="-59.336136" /></flowRegion><flowPara
         id="flowPara3355" /></flowRoot>    <path
       style="fill:#ffffff;fill-opacity:1;stroke:none"
       d="m 0,-400 6300,0 0,2400 -6300,0 z"
       id="rect3357"
       inkscape:connector-curvature="0" />
  </g>
  <g
     transform="translate(0,1347.6378)"
     id="layer1"
     inkscape:groupmode="layer"
     inkscape:label="u0042">
    <g
       transform="matrix(1,0,0,-1,1036,52.36216)"
       id="g7178" />
    <g
       transform="matrix(1,0,0,-1,0,397.36216)"
       id="g7216" />
    <g
       style="fill:#000000"
       id="g7228"
       transform="matrix(1,0,0,-1,1036,52.36216)" />
    <g
       style="fill:#000000"
       id="g7232"
       transform="matrix(1,0,0,-1,0,397.36216)" />
    <path
       style="display:inline;fill:#000000"
       d="m 5569,-1074.1378 c -169,0 -348,41 -509,102 7,18 25,47.99996 37,56.99996 153,-58.00006 298,-93.99996 430,-93.99996 96,0 204,25.9999 204,117.99996 0,101.08637 -118.0747,156.0114 -241.6406,190.07617 -66.4434,10.24138 -131.8383,25.1163 -189.4238,41.34961 -2.0875,0.40936 -4.1761,0.8197 -6.209,1.22266 5.5836,-57.5864 9.2734,-111.17908 9.2734,-152.64844 0,-11 -1,-37 -2,-45 -30,5 -104,19 -135,23 1,13 1,33 1,44 -2,180 -41,367 -57,497.00004 13,43 133,66 260,66 251,0 595,-81.00004 595,-321.00004 0,-112.45079 -117.6041,-157.46982 -254.2304,-166.31055 C 5804.7942,-758.80018 5874,-820.18892 5874,-904.13784 c 0,-128.00006 -156,-169.99996 -305,-169.99996 z m -1213,1 c -156,0 -328,37 -496,99 6,15 20,39.99996 30,46.99996 162,-60.00006 307,-92.99996 434,-92.99996 102,0 220,26.9999 220,123.99996 0,108.53327 -133.5537,166.14135 -266.9277,201.41992 -62.149,9.65898 -122.7319,23.29934 -175.6309,38.23438 -7.4617,1.48542 -14.7001,2.94128 -21.4414,4.3457 3,15 16,39 31,42 47.9224,-8.44228 105.7116,-19.10871 165.5098,-33.30664 49.836,-6.63807 100.3046,-10.69336 143.4902,-10.69336 105,0 215,22 215,120 0,167 -193,253.00004 -444,253.00004 -61.7345,0 -129.6924,-7.937 -171.039,-20.82035 17.5536,-115.14946 55.039,-373.41362 55.039,-509.17969 0,-11 0,-35 -1,-43 -23,4 -82,15 -107,18 1,12 1,31 1,42 -2,179 -41,376 -58,506.00004 16,38 123,61 254,61 248,0 586,-78.00004 586,-317.00004 0,-118.36325 -129.4256,-159.41243 -270.8886,-164.44922 101.31,-45.18299 177.8886,-108.13171 177.8886,-197.55078 0,-127.00006 -156,-166.99996 -301,-166.99996 z m -1212,1 c -143,0 -309,34 -484,97 4,11 14,30.99996 22,36.99996 171,-61.00006 318,-92.99996 440,-92.99996 109,0 235,27.9999 235,129.99996 0,116.1002 -151.722,176.60808 -295.2441,213.21289 -56.5163,8.98499 -111.0228,21.19805 -158.4356,34.56445 -8.9005,1.80257 -17.43,3.54733 -25.3203,5.22266 2,12 13,31 25,33 50.1382,-8.87863 110.6456,-20.085 172.6817,-35.18555 50.0966,-6.72001 100.5062,-10.81445 143.3183,-10.81445 113,0 231,24 231,127 0,175 -212,264.00004 -474,264.00004 -67.8552,0 -142.3751,-8.694 -184.8027,-24.9786 17.964,-113.2379 56.8027,-375.07599 56.8027,-516.02144 0,-11 -1,-33 -2,-41 -17,3 -61,11 -79,13 1,11 2,29 2,40 -2,177 -41,384 -59,514.00004 19,33 112,57 248,57 245,0 577,-76.00004 577,-313.00004 0,-125.62065 -143.8246,-161.22376 -291.1465,-161.98242 C 3353.4419,-748.22977 3439,-812.88658 3439,-908.13784 c 0,-126.00006 -153,-163.99996 -295,-163.99996 z m -1213,1 c -130,0 -288,30 -471,94 3,8 9,22.9999 15,26.99996 180,-63.00006 327,-91.99996 444,-91.99996 115,0 250,29.9999 250,136.99996 0,123.09846 -165.8969,186.21092 -317.0625,223.66797 -54.5894,8.43027 -106.7385,19.84733 -151.3691,32.54297 -8.2466,1.65182 -16.2047,3.25701 -23.5684,4.78906 2,8 10,21 18,23 49.8882,-9.09419 109.4343,-20.0876 170.2461,-34.7168 53.3042,-7.06539 107.3414,-11.2832 152.7539,-11.2832 120,0 247,25 247,133 0,183 -231,276.00004 -503,276.00004 -72.8815,0 -155.7808,-10.0246 -199.2851,-31.4258 18.429,-112.44519 57.2851,-376.99936 57.2851,-521.57424 0,-11 0,-31 -1,-39 -10,2 -39,8 -51,9 1,9 2,26 2,37 -2,176 -42,393 -60,523.00004 21,28 102,52 242,52 242,0 568,-72.00004 568,-308.00004 0,-126 -146,-159 -290,-159 -9.6817,0 -19.4688,0.17213 -29.3164,0.47461 C 2122.3935,-739.90797 2222,-805.99194 2222,-910.13784 c 0,-125.00006 -153,-160.99996 -291,-160.99996 z m -1211.99998,1 c -117,0 -269,27 -459,92 1,5 3,14 7,16 189,-65 337,-91 449,-91 122,0 266,30.9999 266,142.99996 0,131.07078 -184.63464,196.78903 -344.36914,235.25976 -49.13268,7.73247 -95.61273,17.86215 -135.33594,29.10352 -9.64744,1.96128 -18.83561,3.84402 -27.29492,5.63672 2,5 7,12 12,13 49.93698,-9.15076 109.17248,-20.01779 169.42774,-34.46289 56.19001,-7.30429 113.38913,-11.53711 160.57226,-11.53711 127,0 262.99998,26 262.99998,139 0,191 -249.99998,287.00004 -531.99998,287.00004 -78.7687,0 -168.96872,-11.4308 -213.70509,-38.4161 19.07948,-112.01295 58.70509,-377.6361 58.70509,-525.58394 0,-11 -1,-29 -2,-37 -4,1 -17,4 -22,4 1,8 2,24 2,35 -2,175 -42,401 -61,531.00004 24,23 91,48 236,48 239,0 558.99998,-70.00004 558.99998,-304.00004 0,-126 -143.99998,-156 -283.99998,-156 -22.83452,0 -46.18492,0.85335 -69.64062,2.41992 C 886.99288,-730.7918 1005,-798.00335 1005,-912.13784 1005,-1036.1379 854.00002,-1070.1378 719.00002,-1070.1378 Z M 5621,-648.13784 c 98,0 199,21 199,114 0,159 -174,242.00004 -415,242.00004 -56.5166,0 -116.8269,-7.12639 -156.3886,-17.12113 10.9641,-73.89924 29.8766,-202.68001 42.3476,-321.85743 6.9903,12.97702 17.1467,24.55755 28.041,26.97852 47.3766,-8.34614 104.9428,-19.11113 164.8321,-33.43164 47.4323,-6.50569 95.3937,-10.56836 137.1679,-10.56836 z m 10,569.00004 c -235,0 -447,59 -571,114 15,34 53,91 75,109 108,-49 248,-99 406,-99 63,0 127,21 127,87 0,67.621 -58.6983,108.9686 -133.9453,136.5996 -32.7703,5.4051 -65.9199,11.9713 -98.9121,19.3359 3.0054,-37.8098 4.8574,-71.9055 4.8574,-98.9355 0,-10 -1,-45 -1,-54 -62,10 -213,35 -277,45 0,20 1,45 1,55 -2,186 -40,325 -53,456 0,68 186,88 290,88 265,0 640,-95 640,-343 0,-92.001 -79.8662,-145.8444 -190.9687,-169.168 C 5915.5654,222.9682 5960,169.5256 5960,104.8622 c 0,-132 -163,-184 -329,-184 z m -1212,1 c -222,0 -428,56 -559,112 13,31 47,82 67,98 117,-51 258,-98 411,-98 70,0 143,22 143,93 0,73.7736 -68.5117,117.8815 -153.0781,146.9941 -40.1022,6.5006 -80.6442,14.7625 -120.543,24.0859 3.4726,-41.6756 5.6211,-79.3649 5.6211,-109.08 0,-10 -2,-43 -2,-52 -56,9 -191,31 -248,40 0,19 1,43 1,53 -2,185 -40,333 -54,464 3,63 175,84 284,84 262,0 631,-93 631,-339 0,-95.5879 -85.116,-148.3376 -200.8086,-169.2559 C 4694.995,225.3356 4743,170.4028 4743,102.8622 c 0,-131 -161,-181 -324,-181 z m -1213,1 c -209,0 -407,52 -546,109 12,28 42,74 60,88 126,-53 267,-97 415,-97 76,0 158,24 158,100 0,79.6516 -77.4502,126.4323 -170.1621,156.8554 -48.299,7.4795 -97.0575,17.5278 -144.1894,28.9746 3.89,-45.7112 6.3515,-87.3208 6.3515,-119.83 0,-10 -1,-41 -1,-50 -49,8 -169,28 -220,36 0,17 1,40 1,50 -2,184 -41,342 -55,473 5,58 165,79 278,79 259,0 622,-89 622,-334 0,-98.9299 -92.0017,-150.6587 -212.7363,-169.0567 C 3473.4211,229.0624 3526,172.3669 3526,100.8622 c 0,-130 -161,-178 -320,-178 z m -1212,1 c -196,0 -388,49 -534,107 10,24 36,65 52,78 135,-54 278,-97 421,-97 83,0 173,25 173,106 0,86.2626 -90.2794,135.9667 -193.5898,167.9355 -54.7339,8.4762 -109.7038,20.2125 -161.5879,33.5156 4.3832,-49.5302 7.1777,-94.9425 7.1777,-130.4511 0,-10 -2,-39 -2,-48 -43,7 -148,24 -192,31 0,16 2,38 2,48 -2,182 -41,350 -56,481 8,53 154,75 272,75 256,0 613,-87 613,-330 0,-103.2527 -98.9137,-153.1386 -224.8164,-168.5723 C 2251.125,232.0273 2308,173.7213 2308,98.8622 c 0,-129 -158,-175 -314,-175 z m -1212.99998,1 c -183,0 -368,45 -521,104 9,21 31,57 45,68 144,-56 287,-96 425,-96 89,0 189,26 189,112 0,93.0589 -103.03328,145.5233 -216.12696,178.8613 -62.22414,9.5954 -124.28853,23.3854 -180.83398,38.8516 4.82907,-53.6499 7.96094,-103.2109 7.96094,-141.7129 0,-10 -1,-37 -1,-46 -36,6 -126,20 -164,26 0,15 2,36 2,46 -2,181 -41,359 -57,490 11,48 144,70 266,70 253,0 603.99998,-84 603.99998,-326 C 1180,341.1688 1073.1073,293.6505 942.70901,281.2821 1029.1124,235.812 1091,175.898 1091,96.8622 c 0,-128 -157.99998,-172 -309.99998,-172 z m 41,433 c 91,0 181.99998,20 181.99998,108 0,150 -153.99998,230 -384.99998,230 -49.96048,0 -102.94122,-5.3302 -140.45117,-12.6973 10.00971,-68.704 25.57506,-180.0876 36.98828,-286.8184 4.00716,2.7872 8.1958,4.7398 12.46289,5.5157 47.59481,-8.0961 105.72943,-18.97 166.35741,-33.6075 44.10564,-6.2987 88.44899,-10.3925 127.64259,-10.3925 z m 1200.99998,6 c 84,0 166,19 166,102 0,142 -135,219 -356,219 -44.6926,0 -90.8828,-4.5682 -125.6855,-10.3418 9.3967,-66.0635 23.6758,-168.3706 34.6933,-267.6993 46.2794,-7.9638 102.2341,-18.6813 160.8575,-32.9648 41.31,-6.0381 82.7833,-9.9941 120.1347,-9.9941 z m 1201,7 c 76,0 150,17 150,95 0,134 -116,208 -326,208 -39.079,0 -79.5662,-3.8212 -111.834,-8.543 8.9621,-65.2649 22.1237,-161.9413 32.5958,-256.7715 39.9637,-7.1137 85.9551,-16.1745 134.1542,-27.6309 41.335,-6.0448 83.1229,-10.0546 121.084,-10.0546 z m 1201,6 c 69,0 134,16 134,89 0,126 -97,196 -297,196 -33.8631,0 -68.2011,-2.8761 -96.9961,-6.4102 8.6228,-63.8276 20.9459,-154.4337 31.0664,-244.2656 36.4494,-6.6825 77.1655,-15.0101 119.6114,-25.252 37.3482,-5.461 74.8341,-9.0722 109.3183,-9.0722 z m 1201,6 c 62,0 118,15 118,83 0,118 -78,185 -268,185 -28.3563,0 -57.0397,-2.0719 -82.2382,-4.7149 8.1831,-62.3524 19.4872,-147.4562 29.0214,-232.4453 32.5749,-6.2529 68.0933,-13.8012 104.8555,-22.7598 33.4312,-4.8783 66.9173,-8.08 98.3613,-8.08 z"
       id="path12136"
       inkscape:connector-curvature="0" />
  </g>
</svg>
