<svg xmlns="http://www.w3.org/2000/svg" width="1000" height="1160" viewBox="0 0 1000 1160"><path d="M436.198 1058.6c-11.532-2.094-21.807-6.482-22.568-9.639-.017-.07-8.71-36.104-8.71-71.422 0-20.108-1.157-39.995 29.147-39.995 4.058 0 8.688.223 14.1.875 51.57 6.223 67.448 30.256 85.86 50.608 10.605 11.503 20.748 23.626 29.014 33.658 10.026-20.732 19.506-54.645 19.506-91.069 0-79.927-43.158-112.972-55.629-115.941-13.565-3.23-72.624 10.898-101.453 55.822-1.695 2.642-12.668 2.582-24.1-.131-11.434-2.713-19.573-7.19-17.877-9.833 25.771-40.16 73.874-73.604 149.775-55.53 68.44 16.296 91.72 58.846 91.72 134.046 0 56.2-20.441 105.502-35.755 113.58-.99.522-1.939 1.017-4.396 1.456-21.316 3.806-35.997-7.606-35.997-7.606-11.491-7.66-29.747-35.466-55.558-63.463-13.759-15.207-25.435-26.405-34.23-31.688-6.737 3.897-11.69 17.48-11.69 33.644 0 34.916 8.62 70.678 8.62 70.678.76 3.155-8.246 4.043-19.778 1.95zm-305.017 9.199c-9.304-3.909-18.197-14.224-20.406-22.394-.363-1.51-9.14-37.732-9.14-74.551 0-22.123 5.493-44.11 27.645-44.11 32.392 0 60.155 24.366 85.993 52.892 15.888 17.276 28.975 33.545 38.436 45.048 11.196-15.956 25.552-56.756 25.552-99.754 0-51.643-15.967-77.495-25.741-86.282-27.073-24.34-104.094-14.887-140.364 41.636-3.243 5.051-13.263 2.72-22.01-5.121-8.746-7.842-13.347-18.62-10.106-23.672 34.649-53.995 117.231-91.769 184.474-31.313 34.188 30.738 47.997 73.094 47.997 125.302 0 60.641-20.92 115.663-41.573 119.35-3.285.587-8.397-.872-13.365-4.184-21.246-14.163-37.706-42.903-61.31-68.507-23.555-26.034-28.685-31.144-47.433-31.144-6.443 0-13.946 10.94-13.946 30.408 0 33.112 8.248 67.795 8.248 67.795 2.047 8.508-3.85 12.425-12.95 8.6zm605.573-3.725c-9.404 6.908-17.945 6.673-19.684.784-.243-1.008-8.946-36.612-8.946-73.366 0-12.172.812-24.043 9.387-38.388 2.705-4.522 6.8-9.944 12.36-14.813 10.585-9.266 20.205-11.457 26.448-11.457 30.03 0 47.328 16.819 71.93 44.01 17.495 18.977 33.263 39.05 43.3 50.969 7.389-18.398 14.201-46.237 14.201-76.244 0-83.643-40.314-117.566-82.783-120.468-38.394-2.623-71.115 18.209-86.234 41.767-5.977 9.316-16.96 16.697-24.12 16.211-7.162-.485-8.15-8.679-2.172-17.994 33.39-52.031 90.662-77.182 134.484-74.187C876.471 794.42 920 834.398 920 925.019c0 50.939-14.465 113.814-51.293 135.747-3.475 2.07-7.112 3.527-10.206 4.08-2.604.465-4.901.157-6.497-.907-8.99-5.993-29.064-34.976-54.729-62.817-21.83-24.126-36.516-36.95-54.341-39.542-.303 2.342-.56 5.998-.56 9.362 0 33.716 8.428 68.921 8.428 68.921 1.546 6.43-4.85 17.455-14.049 24.21zM435.345 363.927c-11.54-2.395-21.441-5.459-21.747-6.729-.003-.011-8.673-35.982-8.673-71.11 0-20.915 2.93-37.778 23.008-37.778 4.127 0 10.386-.138 27.97 3.345 55.505 10.995 60.162 27.25 78.776 47.824 10.22 11.087 19.933 22.657 28.104 32.564 10.168-20.885 19.768-55.065 19.768-91.877 0-66.588-26.505-104.455-55.604-118.092-35.13.014-78.502 22.233-101.334 57.811-.681 1.061-10.882-.138-22.406-2.632-11.524-2.495-20.587-5.468-19.906-6.528 25.904-40.369 65.354-70.973 146.265-53.443 76.43 16.56 95.372 54.83 95.372 131.799 0 55.289-21.354 104.577-34.407 112.055-.822.47-1.534.797-2.71 1.008-8.567 1.529-41.127-8.732-41.127-8.732-7.633-5.088-28.467-34.454-54.11-62.268-12.361-13.664-22.649-24.118-32.766-31.013-8.31 4.912-12.507 18.576-12.507 34.873 0 35.063 8.658 70.989 8.658 70.989.305 1.271-9.085.33-20.624-2.066zM132.61 725.607c-9.439 4.34-18.8-1.865-21.583-11.895-.553-2.303-9.432-38.181-9.432-77.243 0-2.888.098-5.764.309-8.628 1.107-15.08 5.392-33.53 19.292-44.733 6.145-4.954 13.382-7.348 20.331-7.348 32.025 0 52.877 19.76 77.451 46.92 17.052 18.498 32.67 38.231 42.324 49.79 8.521-16.721 17.918-48.477 17.918-81.923 0-46.198-12.605-73.463-29.801-89.366-38.69-35.775-109.068-15.537-138.541 30.394-6.16 9.598-17.414 12.021-24.715 5.32-7.303-6.702-8.257-20.328-2.097-29.927 41.89-65.279 132.67-92.166 188.058-40.95 25.795 23.853 42.174 64.352 42.174 120.612 0 58.19-19.787 129.939-52.97 135.864-3.102.553-7.286-.095-10.392-2.166-13.275-8.85-31-36.661-56.621-64.454-24.7-27.3-36.704-37.01-55.735-37.128-.66 1.615-1.908 6.824-1.908 13.807 0 30.627 7.952 65.088 7.991 65.253 2.622 10.918-2.865 23.576-12.053 27.8zm608.38-.645c-5.544 5.314-11.727-.353-14.3-9.56-.793-3.314-9.875-39.516-9.875-81.025 0-31.962 12.084-58.92 31.626-58.92 27.928 0 47.119 17.273 71.92 44.685 21.779 23.625 41.044 48.943 49.354 57.886 9.02-9.563 24.727-49.082 24.727-89.574 0-22.544-3.198-39.57-8.656-53.623-29.058-74.816-132.803-61.473-173.145 1.393-4.653 7.252-11.575 5.533-15.2-3.773-3.626-9.307-2.767-23.15 1.886-30.401 46.486-72.44 162.496-99.54 203.566 6.204 8.393 21.61 13.21 48.868 13.21 80.2 0 66.916-25.341 130.482-46.26 134.217-1.313.235-2.987-.092-4.387-1.025-10.537-7.025-29.945-35.784-55.498-63.502-24.588-27.177-38.322-39.363-61.516-39.363-9.052 0-9.965 5.968-9.965 15.596 0 27.853 7.472 61.15 7.601 61.691 2.55 10.64.233 23.797-5.087 28.895zM123.802 374.763c-2.288 8.73-5.613 6.201-7.43.223-.908-3.807-10.388-40.016-10.388-86.95 0-43.38 12.214-58.92 26.212-58.92 26.106 0 43.412 15.455 68.148 42.794 24.76 26.858 46.538 56.078 52.618 61.059 11.479-4.116 30.65-54.426 30.65-90.855 0-5.387-.227-10.22-.669-14.936-10.444-111.512-141.167-112.225-191.239-34.197-2.75 4.284-5.942-1.326-7.012-12.32-1.072-10.995.331-23.766 3.08-28.048 48.86-76.142 189.65-107.866 205.313 59.366.89 9.494 1.356 19.677 1.356 30.135 0 79.413-28.143 131.885-41.565 134.28-.287.052-.771-.03-1.132-.272-7.72-5.144-28.713-34.712-54.249-62.413-24.679-27.276-40.28-41.268-65.301-41.268-14.596 0-15.38 15.596-15.38 15.596 0 22.852 7.168 56.1 7.168 56.1 2.036 8.538 1.954 22.483-.18 30.626zm609.31-8.608c-10.335 5.606-19.693 7.305-20.554 3.73-.022-.093-8.73-36.101-8.73-71.63 0-14.297-2.436-26.617 17.922-43.223 15.798-12.888 32.366-15.954 37.06-15.954 29.558 0 45.408 15.788 70.074 43.052 15.286 16.582 29.236 33.999 39.248 46.113 7.375-20.082 13.322-47.118 13.322-75.911 0-115.724-77.982-136.041-122.679-119.708-11.409 4.168-25.695 12.288-39.717 34.14-3.603 5.614-14.743 13.284-24.467 16.845-9.725 3.56-14.842 1.845-11.24-3.77 16.473-25.667 49.078-53.367 88.716-67.853 78.31-28.616 147.464 5.79 147.464 120.923 0 50.666-9.06 106.694-54.05 129.32-5.633 2.833-10.621 4.403-13.741 4.96-2.02.36-4.628.34-5.719-.389-7.589-5.058-28.524-34.521-54.146-62.314-18.962-20.958-33.16-34.19-48.919-38.92-.68 3.982-1.05 8.5-1.05 13.265 0 34.733 8.599 70.47 8.599 70.47.86 3.575-7.059 11.249-17.394 16.854z" fill="#1a1a1a"/><path d="M434.704 719.161c-11.753 2.707-22.663-3.112-25.095-11.725-.362-1.505-9.114-37.296-9.114-74.579 0-3.82.19-7.572.599-11.24 1.474-13.244 4.805-30.702 24.307-40.6 5.843-2.964 12.801-4.555 19.342-4.555 37.434 0 58.455 21.809 82.408 48.282 13.502 14.646 26.083 30.06 35.476 41.501 8.056-18.97 15.495-48.402 15.495-79.31 0-67.864-26.488-97.84-52.419-107.454-33.326-12.357-81.242 4.124-106.526 43.525-5.622 8.762-18.906 12.906-29.174 9.1-10.268-3.807-14.15-14.313-8.528-23.074 33.49-52.189 105.253-83.83 164.879-61.723 45.56 16.894 74.753 62.279 74.753 136.429 0 54.472-14.34 124.072-55.151 131.36-5.89 1.05-12.54-.022-17.215-3.14-14.134-9.421-31.173-36.757-56.889-64.654-22.018-24.336-34.54-33.626-45.808-35.388-1.323 3.499-2.564 10.162-2.564 17.744 0 33.304 8.28 67.788 8.28 67.788 2.206 9.179-5.56 19.065-17.057 21.713z" fill="#2ad"/></svg>