<?xml version="1.0" encoding="UTF-8" standalone="no"?>
<!-- Created with Inkscape (http://www.inkscape.org/) -->

<svg
   xmlns:dc="http://purl.org/dc/elements/1.1/"
   xmlns:cc="http://creativecommons.org/ns#"
   xmlns:rdf="http://www.w3.org/1999/02/22-rdf-syntax-ns#"
   xmlns:svg="http://www.w3.org/2000/svg"
   xmlns="http://www.w3.org/2000/svg"
   xmlns:sodipodi="http://sodipodi.sourceforge.net/DTD/sodipodi-0.dtd"
   xmlns:inkscape="http://www.inkscape.org/namespaces/inkscape"
   width="1000"
   height="1160"
   viewBox="0 0 1000 1160"
   id="svg2"
   version="1.1"
   inkscape:version="0.91 r13725"
   sodipodi:docname="pen-strokes.svg">
  <defs
     id="defs4" />
  <sodipodi:namedview
     id="base"
     pagecolor="#ffffff"
     bordercolor="#666666"
     borderopacity="1.0"
     inkscape:pageopacity="0.0"
     inkscape:pageshadow="2"
     inkscape:zoom="0.12187708"
     inkscape:cx="67.714923"
     inkscape:cy="1439.4386"
     inkscape:document-units="px"
     inkscape:current-layer="layer1"
     showgrid="false"
     showborder="true"
     inkscape:window-width="1366"
     inkscape:window-height="750"
     inkscape:window-x="0"
     inkscape:window-y="18"
     inkscape:window-maximized="1"
     inkscape:showpageshadow="false"
     units="px" />
  <metadata
     id="metadata7">
    <rdf:RDF>
      <cc:Work
         rdf:about="">
        <dc:format>image/svg+xml</dc:format>
        <dc:type
           rdf:resource="http://purl.org/dc/dcmitype/StillImage" />
        <dc:title></dc:title>
      </cc:Work>
    </rdf:RDF>
  </metadata>
  <g
     inkscape:label="Layer 1"
     inkscape:groupmode="layer"
     id="layer1"
     transform="translate(0,107.6378)">
    <g
       id="g4297"
       transform="matrix(0.5,0,0,-0.5,344.48121,1028.3639)"
       style="fill:#1a1a1a">
      <path
         id="path4299"
         d="m 163.221,6.62598 c -26.6191,4.83301 -50.3369,14.9619 -52.0908,22.2461 -0.0391,0.162109 -20.1064,83.3369 -20.1064,164.86 0,46.4121 -2.66895,92.3164 67.2764,92.3164 9.36621,0 20.0547,-0.51367 32.5449,-2.02051 119.036,-14.3623 155.685,-69.8369 198.185,-116.811 24.4785,-26.5527 47.8926,-54.5361 66.9707,-77.6934 23.1426,47.8545 45.0234,126.134 45.0234,210.208 0,184.489 -99.6172,260.766 -128.401,267.619 -31.3115,7.45508 -167.635,-25.1582 -234.176,-128.851 -3.91309,-6.09766 -29.2422,-5.95996 -55.6309,0.30371 -26.3887,6.2627 -45.1758,16.5957 -41.2627,22.6943 59.4873,92.6992 170.516,169.895 345.713,128.178 157.975,-37.6143 211.71,-135.831 211.711,-309.409 0,-129.723 -47.1826,-243.520999 -82.5332,-262.166999 -2.2832,-1.2041 -4.47266,-2.34766 -10.1436,-3.36035 -49.2021,-8.78613 -83.0908,17.5547 -83.0908,17.5547 -26.5234,17.6826 -68.6621,81.863299 -128.238,146.486999 -31.7598,35.1025 -58.71,60.9492 -79.0117,73.1426 -15.5488,-8.99414 -26.9824,-40.3477 -26.9834,-77.6572 0,-80.591799 19.8955,-163.139999 19.8955,-163.139999 1.75391,-7.28418 -19.0322,-9.33398 -45.6504,-4.50195 z"
         inkscape:connector-curvature="0"
         style="fill:#1a1a1a" />
    </g>
    <g
       id="g4311"
       transform="matrix(0.5,0,0,-0.5,-10.267352,1027.6402)"
       style="fill:#1a1a1a">
      <path
         id="path4313"
         d="m 168.671,-16.0547 c -21.4756,9.02246 -42.0029,32.832 -47.1006,51.6914 -0.83789,3.48438 -21.0986,87.0918 -21.0986,172.08 0,51.0635 12.6816,101.812 63.8115,101.812 74.7686,0 138.852,-56.2412 198.491,-122.087 36.6719,-39.875 66.8809,-77.4277 88.7188,-103.977 25.8447,36.8281 58.9785,131.005 58.9785,230.252 0,119.205 -36.8564,178.877 -59.415,199.159 -62.4883,56.1816 -240.271,34.3604 -323.992,-96.1045 -7.4834,-11.6611 -30.6133,-6.2793 -50.8027,11.8203 -20.1885,18.0996 -30.8086,42.9766 -23.3262,54.6377 79.9775,124.632 270.594,211.824 425.806,72.2773 78.9121,-70.9482 110.787,-168.716 110.787,-289.224 0,-139.973 -48.2871,-266.975 -95.959,-275.486 -7.58203,-1.35449 -19.3828,2.01367 -30.8516,9.65918 -49.0371,32.6914 -87.0312,99.0273 -141.516,158.13 -54.3682,60.0908 -66.2109,71.8857 -109.484,71.8857 -14.8711,0 -32.1895,-25.252 -32.1895,-70.1895 0,-76.4268 19.0381,-156.485 19.0381,-156.485 4.72266,-19.6396 -8.88965,-28.6777 -29.8955,-19.8516 z"
         inkscape:connector-curvature="0"
         style="fill:#1a1a1a" />
    </g>
    <g
       id="g4325"
       transform="matrix(0.5,0,0,-0.5,689.6874,1027.7434)"
       style="fill:#1a1a1a">
      <path
         id="path4327"
         d="m 166.556,-7.25195 c -21.7061,-15.9434 -41.4209,-15.4014 -45.4336,-1.80859 -0.55957,2.3252 -20.6504,84.5078 -20.6504,169.344 0,28.0957 1.87402,55.498 21.6689,88.6064 6.24219,10.4395 15.6934,22.9561 28.5293,34.1943 24.4287,21.3867 46.6367,26.4443 61.0469,26.4443 69.3145,0 109.243,-38.8184 166.03,-101.582 40.3828,-43.8057 76.7764,-90.1406 99.9453,-117.649 17.0566,42.4668 32.7793,106.723 32.7793,175.986 0,193.067 -93.0537,271.369 -191.082,278.068 -88.6211,6.05566 -164.148,-42.0293 -199.045,-96.4092 -13.7969,-21.502 -39.1475,-38.5381 -55.6758,-37.417 -16.5293,1.12109 -18.8115,20.0322 -5.01367,41.5332 77.0693,120.099 209.269,178.153 310.42,171.241 118.979,-8.13086 219.453,-100.407 219.453,-309.583 0,-117.577 -33.3887,-262.705 -118.395,-313.333 -8.02051,-4.77734 -16.415,-8.14062 -23.5576,-9.41602 -6.01074,-1.07324 -11.3135,-0.362305 -14.998,2.09375 -20.75,13.834 -67.084,80.7314 -126.325,144.993 -50.3877,55.6914 -84.2871,85.29 -125.432,91.2734 -0.69727,-5.4043 -1.29297,-13.8438 -1.29297,-21.6113 0,-77.8232 19.4531,-159.084 19.4531,-159.084 3.57031,-14.8438 -11.1934,-40.2891 -32.4258,-55.8848 z"
         inkscape:connector-curvature="0"
         style="fill:#1a1a1a" />
    </g>
    <g
       id="g4339"
       transform="matrix(0.5,0,0,-0.5,344.45843,230.63291)"
       style="fill:#1a1a1a">
      <path
         id="path4341"
         d="m 161.297,14.6182 c -26.6357,5.5293 -49.4912,12.6006 -50.1982,15.5322 -0.006,0.02637 -20.0176,83.0547 -20.0176,164.139 0,48.2764 6.76465,87.1992 53.1074,87.1992 9.52441,0 23.9727,0.32031 64.5615,-7.7207 128.116,-25.3789 138.865,-62.8984 181.831,-110.387 23.5928,-25.5918 46.0098,-52.2988 64.8701,-75.165 23.4717,48.207 45.6299,127.101 45.6299,212.073 0,153.698 -61.1797,241.104 -128.347,272.581 -81.0898,-0.0322 -181.2,-51.3184 -233.901,-133.442 -1.57129,-2.44824 -25.1182,0.31836 -51.7178,6.07715 -26.5996,5.75879 -47.5195,12.6201 -45.9492,15.0684 59.7949,93.1797 150.855,163.819 337.613,123.357 176.418,-38.2217 220.139,-126.562 220.139,-304.22 0,-127.619 -49.2881,-241.388 -79.4199,-258.648 -1.89453,-1.08594 -3.53809,-1.83984 -6.25488,-2.3252 -19.7734,-3.53125 -94.9287,20.1523 -94.9287,20.1523 -17.6182,11.7461 -65.709,79.5273 -124.896,143.729 -28.5342,31.5381 -52.2793,55.6699 -75.6318,71.584 -19.1826,-11.3369 -28.8691,-42.876 -28.8691,-80.4922 0,-80.9346 19.9834,-163.861 19.9834,-163.861 0.70606,-2.93164 -20.9688,-0.759766 -47.6045,4.76855 z"
         inkscape:connector-curvature="0"
         style="fill:#1a1a1a" />
    </g>
    <g
       id="g4353"
       transform="matrix(0.5,0,0,-0.5,-9.8370144,627.60691)"
       style="fill:#1a1a1a">
      <path
         id="path4355"
         d="m 171.108,-26.2666 c -21.7871,-10.0195 -43.3975,4.30176 -49.8193,27.4541 -1.27637,5.31543 -21.7725,88.1309 -21.7725,178.292 0,6.66699 0.227539,13.3066 0.71387,19.917 2.55664,34.8086 12.4482,77.3955 44.5283,103.254 14.1865,11.4346 30.8906,16.959 46.9307,16.959 73.9209,0 122.052,-45.6064 178.775,-108.3 39.3594,-42.6963 75.4092,-88.2461 97.6914,-114.928 19.668,38.5967 41.3604,111.896 41.3604,189.097 0,106.636 -29.0947,169.571 -68.79,206.276 -89.3027,82.5762 -251.751,35.8623 -319.783,-70.1533 -14.2178,-22.1562 -40.192403,-27.7471 -57.046903,-12.2793 -16.8545,15.4688 -19.0586,46.9199 -4.84082,69.0762 96.691403,150.677 306.233003,212.74 434.081003,94.5225 59.542,-55.0576 97.3467,-148.538 97.3467,-278.4 0,-134.317 -45.6738,-299.926 -122.269,-313.602 -7.15918,-1.27832 -16.8135,0.217773 -23.9844,4.99805 -30.6436,20.4287 -71.5547,84.6211 -130.695,148.774 -57.0127,63.0146 -84.7197,85.4277 -128.648,85.6982 -1.52246,-3.72656 -4.40332,-15.75 -4.40332,-31.8682 0,-70.6953 18.3545,-150.236 18.4463,-150.618 6.05078,-25.2012 -6.61621,-54.418 -27.8213,-64.1699 z"
         inkscape:connector-curvature="0"
         style="fill:#1a1a1a" />
    </g>
    <g
       id="g4381"
       transform="matrix(0.5,0,0,-0.5,692.4525,627.45162)"
       style="fill:#1a1a1a">
      <path
         id="path4383"
         d="m 170.803,-25.0908 c -12.7979,-12.2637 -27.0693,0.814453 -33.0088,22.0693 -1.83301,7.64844 -22.7939,91.2109 -22.7939,187.021 0,73.7754 27.8926,136 73,136 64.4639,0 108.76,-39.8711 166.006,-103.143 50.2705,-54.5303 94.7412,-112.969 113.922,-133.613 20.8203,22.0752 57.0723,113.294 57.0723,206.756 0,52.0361 -7.37988,91.3379 -19.9775,123.773 -67.0723,172.692 -306.539,141.895 -399.657,-3.21484 -10.7412,-16.7383 -26.7168,-12.7725 -35.0859,8.70996 -8.36914,21.4834 -6.38672,53.4336 4.35547,70.1729 107.298,167.206 375.075,229.759 469.874,-14.3223 19.373,-49.8809 30.4912,-112.796 30.4912,-185.119 0,-154.457 -58.4932,-301.18 -106.776,-309.802 -3.0332,-0.541992 -6.89746,0.212891 -10.1289,2.36719 -24.3232,16.2158 -69.1191,82.5977 -128.101,146.577 -56.7539,62.7285 -88.458,90.8574 -141.994,90.8574 -20.8926,0 -23,-13.7754 -23,-36 0,-64.29 17.248,-141.147 17.5459,-142.395 5.88379,-24.5605 0.53711,-54.9287 -11.7432,-66.6963 z"
         inkscape:connector-curvature="0"
         style="fill:#1a1a1a" />
    </g>
    <g
       id="g4395"
       transform="matrix(0.5,0,0,-0.5,-18.760746,227.73765)"
       style="fill:#1a1a1a">
      <path
         id="path4397"
         d="m 168.627,-16.1826 c -5.28223,-20.1523 -12.9561,-14.3145 -17.1514,-0.512695 -2.09473,8.78516 -23.9756,92.3633 -23.9756,200.694995 0,100.133 28.1895,136 60.5,136 60.2598,0 100.206,-35.66989 157.301,-98.7744 57.1504,-61.9941 107.421,-129.442995 121.453,-140.937995 26.4961,9.49902 70.7461,125.625995 70.7461,209.711995 0,12.4355 -0.52148,23.58981 -1.54199,34.4756 -24.1074,257.396 -325.845,259.041 -441.42,78.9355 -6.34473,-9.88672 -13.7139,3.06152 -16.1855,28.4385 -2.4716,25.37698 0.765625,54.8535 7.10938,64.7393 112.783,175.753 437.753,248.979 473.907,-137.029 2.05273,-21.915 3.13086,-45.4199 3.13086,-69.5596 0,-183.301 -64.9609,-304.417995 -95.9424,-309.949995 -0.66016,-0.118164 -1.77832,0.07422 -2.6123,0.630859 -17.8145,11.875 -66.2734,80.123 -125.217,144.061996 -56.9639,62.96 -92.9756,95.2568 -150.729,95.2568 -33.6895,0 -35.5,-36 -35.5,-36 0,-52.7471 16.5459,-129.490996 16.5459,-129.490996 4.69922,-19.708 4.50781,-51.8945 -0.41895,-70.6914 z"
         inkscape:connector-curvature="0"
         style="fill:#1a1a1a" />
    </g>
    <g
       id="g4423"
       transform="matrix(0.5,0,0,-0.5,686.93835,228.32129)"
       style="fill:#1a1a1a">
      <path
         id="path4425"
         d="m 163.647,4.85254 c -23.8545,-12.9385 -45.4551,-16.8584 -47.4414,-8.60742 -0.0518,0.212891 -20.1523,83.3291 -20.1523,165.339 0,32.9971 -5.62207,61.4346 41.3691,99.7676 36.4648,29.7451 74.707,36.8223 85.542,36.8223 68.2266,0 104.812,-36.4414 161.749,-99.373 35.2822,-38.2725 67.4805,-78.4746 90.5908,-106.438 17.0234,46.3535 30.75,108.758 30.75,175.221 0,267.117 -179.999,314.012 -283.17,276.311 -26.334,-9.62305 -59.3086,-28.3643 -91.6758,-78.8037 -8.31543,-12.958 -34.0293,-30.6611 -56.4756,-38.8818 -22.4463,-8.21973 -34.2578,-4.25879 -25.9424,8.7002 38.0205,59.248 113.28,123.187 204.773,156.62 180.755,66.0527 340.382,-13.3652 340.382,-279.113 0,-116.951 -20.9131,-246.275 -124.763,-298.503 -13,-6.53711 -24.5127,-10.1611 -31.7158,-11.4473 -4.66113,-0.832031 -10.6807,-0.78125 -13.2002,0.898438 -17.5166,11.6777 -65.8398,79.6816 -124.981,143.835002 -43.7666,48.374 -76.541,78.9189 -112.916,89.835 -1.56934,-9.19141 -2.4248,-19.6201 -2.4248,-30.6182 0,-80.1709 19.8496,-162.661002 19.8496,-162.661002 1.98633,-8.25 -16.2939,-25.9629 -40.1475,-38.9023 z"
         inkscape:connector-curvature="0"
         style="fill:#1a1a1a" />
    </g>
    <g
       id="g3353"
       transform="matrix(0.5,0,0,-0.5,344.73555,627.14069)"
       style="fill:#22aadd;fill-opacity:1">
      <path
         id="path3355"
         d="m 169.351,-18.8975 c -27.1289,-6.24805 -52.3105,7.18359 -57.9238,27.0645 -0.83496,3.47363 -21.0361,86.0859 -21.0361,172.144 0,8.81836 0.439453,17.4785 1.38086,25.9443 3.40234,30.5693 11.0918,70.8672 56.1084,93.7119 13.4873,6.84375 29.5449,10.5166 44.6426,10.5166 86.4062,-9.8e-4 134.929,-50.3398 190.215,-111.446 31.167,-33.8076 60.2061,-69.3848 81.8857,-95.7949 18.5977,43.7891 35.7676,111.726 35.7676,183.068 0,156.644 -61.1406,225.833 -120.993,248.025 -76.9248,28.5215 -187.524,-9.51758 -245.885,-100.464 -12.9785,-20.2246 -43.6396,-29.7891 -67.3408,-21.0039 -23.7012,8.7852 -32.6631,33.0352 -19.6836,53.2598 77.2998,120.46 242.946,193.498 380.575,142.468 105.163,-38.9922 172.546,-143.752 172.546,-314.906 0,-125.733 -33.0967,-286.387 -127.302,-303.208 -13.5938,-2.42676 -28.9424,0.048828 -39.7354,7.24414 -32.6221,21.748 -71.9512,84.8477 -131.311,149.237 -50.8232,56.1738 -79.7246,77.6182 -105.735,81.6855 -3.05469,-8.07715 -5.91699,-23.458 -5.91699,-40.959 0,-76.8711 19.1113,-156.468 19.1113,-156.468 5.09277,-21.1865 -12.833,-44.0059 -39.3701,-50.1191 z"
         inkscape:connector-curvature="0"
         style="fill:#22aadd;fill-opacity:1" />
    </g>
  </g>
</svg>
