<?xml version="1.0" encoding="UTF-8" standalone="no"?>
<svg
   xmlns:dc="http://purl.org/dc/elements/1.1/"
   xmlns:cc="http://creativecommons.org/ns#"
   xmlns:rdf="http://www.w3.org/1999/02/22-rdf-syntax-ns#"
   xmlns:svg="http://www.w3.org/2000/svg"
   xmlns="http://www.w3.org/2000/svg"
   xmlns:sodipodi="http://sodipodi.sourceforge.net/DTD/sodipodi-0.dtd"
   xmlns:inkscape="http://www.inkscape.org/namespaces/inkscape"
   width="150"
   height="32"
   viewBox="0 0 150 32"
   id="svg2"
   version="1.1"
   inkscape:version="0.91 r13725"
   sodipodi:docname="fontuni-logo.svg">
  <metadata
     id="metadata10">
    <rdf:RDF>
      <cc:Work
         rdf:about="">
        <dc:format>image/svg+xml</dc:format>
        <dc:type
           rdf:resource="http://purl.org/dc/dcmitype/StillImage" />
        <dc:title></dc:title>
      </cc:Work>
    </rdf:RDF>
  </metadata>
  <defs
     id="defs8" />
  <sodipodi:namedview
     pagecolor="#ffffff"
     bordercolor="#666666"
     borderopacity="1"
     objecttolerance="10"
     gridtolerance="10"
     guidetolerance="10"
     inkscape:pageopacity="0"
     inkscape:pageshadow="2"
     inkscape:window-width="1206"
     inkscape:window-height="617"
     id="namedview6"
     showgrid="false"
     inkscape:zoom="4.3707972"
     inkscape:cx="97.151047"
     inkscape:cy="15.75732"
     inkscape:window-x="69"
     inkscape:window-y="61"
     inkscape:window-maximized="0"
     inkscape:current-layer="layer1"
     inkscape:showpageshadow="false" />
  <g
     inkscape:groupmode="layer"
     id="layer1"
     inkscape:label="Layer 1">
    <g
       style="font-style:normal;font-variant:normal;font-weight:900;font-stretch:normal;font-size:25px;line-height:125%;font-family:'BoonTook Mon Ultra';-inkscape-font-specification:'BoonTook Mon Ultra Heavy';letter-spacing:0px;word-spacing:0px;fill:#000000;fill-opacity:1;stroke:none;stroke-width:1px;stroke-linecap:butt;stroke-linejoin:miter;stroke-opacity:1"
       id="text3358">
      <path
         d="m 40,13.375 c 0,0.09375 0.05625,0.28125 0.09375,0.375 l 2.8125,9.75 c 0.1125,0.39375 0.28125,0.75 0.84375,0.75 l 3.9375,0 c 0.50625,0 0.69375,-0.3 0.84375,-0.75 L 49.5625,19.5625 50.59375,23.5 c 0.15,0.45 0.3375,0.75 0.84375,0.75 l 4.125,0 c 0.5625,0 0.75,-0.3375 0.84375,-0.75 l 2.625,-14.0625 C 59.05,9.34375 59.125,9.04375 59.125,8.875 59.125,8.59375 58.84375,8.5 58.28125,8.5 l -3.375,0 c -0.54375,0 -0.75,0.24375 -0.84375,0.75 l -1.21875,9.9375 -0.09375,0.75 -0.1875,0 -0.09375,-0.75 -1.3125,-5.4375 C 51.0625,13.3 50.95,13 50.40625,13 l -0.84375,0 -0.84375,0 c -0.54375,0 -0.65625,0.3 -0.75,0.75 l -1.3125,5.4375 -0.09375,0.75 -0.1875,0 -0.09375,-0.75 L 45.4375,13.75 C 45.34375,13.24375 45.1375,13 44.59375,13 l -3.75,0 C 40.28125,13 40,13.09375 40,13.375 Z"
         style="font-size:22.5px"
         id="path3387" />
      <path
         d="m 59.792969,19.375 c 0,3.5625 2.5875,5.25 6,5.25 4.0125,0 6.5625,-2.68125 6.5625,-6 0,-3.69375 -2.3625,-6 -6.375,-6 -3.3,0 -5.2125,0.9375 -5.4375,1.03125 -0.28125,0.13125 -0.375,0.28125 -0.375,0.5625 0,0.24375 0.09375,0.46875 0.09375,0.46875 l 0.58125,1.40625 c 0.09375,0.225 0.1875,0.5625 0.46875,0.5625 0.24375,0 0.675,-0.20625 0.91875,-0.28125 0.4125,-0.13125 1.125,-0.375 2.25,-0.375 1.6875,0 2.8125,0.75 2.8125,2.625 0,1.6875 -0.4125,2.625 -1.5,2.625 -0.75,0 -1.40625,-0.4125 -1.40625,-1.3125 l 0.28125,0 c 0.3,0 0.5625,-0.2625 0.5625,-0.5625 l 0,-0.9375 c 0,-0.3 -0.2625,-0.5625 -0.5625,-0.5625 l -3.75,0 c -0.7125,0 -1.125,0.65625 -1.125,1.5 z"
         style="font-size:22.5px"
         id="path3389" />
      <path
         d="m 86.491211,13.75 c 0,-0.4125 -0.3375,-0.75 -0.75,-0.75 l -3.75,0 c -0.4125,0 -0.75,0.3375 -0.75,0.75 l 0,5.49375 c -0.24375,0.76875 -0.65625,1.25625 -1.3125,1.25625 -0.6375,0 -0.9375,-0.35625 -0.9375,-1.5 l 0,-5.25 c 0,-0.4125 -0.3375,-0.75 -0.75,-0.75 l -3.75,0 c -0.4125,0 -0.75,0.3375 -0.75,0.75 l 0,6.375 c 0,2.7375 1.70625,4.3125 4.125,4.3125 2.11875,0 3.225,-1.2375 3.75,-2.1 l 0,1.1625 c 0,0.4125 0.3375,0.75 0.75,0.75 l 3.375,0 c 0.4125,0 0.75,-0.3375 0.75,-0.75 l 0,-9.75 z"
         style="font-size:22.5px"
         id="path3391" />
      <path
         d="m 88.005859,18.625 c 0,3.20625 2.1,5.8125 5.4375,5.8125 0.75,0 1.2375,-0.1875 1.5,-0.28125 0.28125,-0.1125 0.5625,-0.375 0.5625,-0.65625 l 0,-2.4375 c 0,-0.225 -0.075,-0.28125 -0.1875,-0.28125 -0.075,0 -0.24375,0.09375 -0.5625,0.09375 -0.5625,0 -1.5,-0.6 -1.5,-2.25 0,-1.5 0.6375,-2.25 1.3125,-2.25 0.61875,0 1.65,0.825 2.0625,1.6125 l 0,5.5125 c 0,0.4125 0.3375,0.75 0.75,0.75 l 3.562501,0 c 0.4125,0 0.75,-0.3375 0.75,-0.75 l 0,-9.75 c 0,-0.4125 -0.3375,-0.75 -0.75,-0.75 l -3.375001,0 c -0.4125,0 -0.75,0.3375 -0.75,0.75 l 0,1.40625 c -0.88125,-1.275 -2.1375,-2.34375 -3.5625,-2.34375 -3.24375,0 -5.25,2.60625 -5.25,5.8125 z"
         style="font-size:22.5px"
         id="path3393" />
      <path
         d="m 95.523437,8.875 c 0,0.8625 0.356251,1.5 0.356251,1.5 0.16875,0.3 0.375,0.5625 0.674999,0.5625 l 2.306251,0 c 0.20625,0 0.449999,-0.09375 0.449999,-0.28125 0,-0.075 -0.09375,-0.28125 -0.09375,-0.28125 l -0.225,-0.5625 2.343753,0 c 0.3,0 0.5625,-0.2625 0.5625,-0.5625 l 0,-1.5 c 0,-0.3 -0.2625,-0.5625 -0.5625,-0.5625 l -3.750003,0 c -1.143749,0 -2.0625,0.6 -2.0625,1.6875 z"
         style="font-size:22.5px"
         id="path3395" />
      <path
         d="m 103.21094,19.375 c 0,3.5625 2.5875,5.25 6,5.25 4.0125,0 6.5625,-2.68125 6.5625,-6 0,-3.69375 -2.3625,-6 -6.375,-6 -3.3,0 -5.2125,0.9375 -5.4375,1.03125 -0.28125,0.13125 -0.375,0.28125 -0.375,0.5625 0,0.24375 0.0937,0.46875 0.0937,0.46875 l 0.58125,1.40625 c 0.0937,0.225 0.1875,0.5625 0.46875,0.5625 0.24375,0 0.675,-0.20625 0.91875,-0.28125 0.4125,-0.13125 1.125,-0.375 2.25,-0.375 1.6875,0 2.8125,0.75 2.8125,2.625 0,1.6875 -0.4125,2.625 -1.5,2.625 -0.75,0 -1.40625,-0.4125 -1.40625,-1.3125 l 0.28125,0 c 0.3,0 0.5625,-0.2625 0.5625,-0.5625 l 0,-0.9375 c 0,-0.3 -0.2625,-0.5625 -0.5625,-0.5625 l -3.75,0 c -0.7125,0 -1.125,0.65625 -1.125,1.5 z"
         style="font-size:22.5px"
         id="path3397" />
      <path
         d="m 116.87793,20.6875 c 0,1.95 2.175,3.9375 6.5625,3.9375 4.0125,0 6.5625,-1.575 6.5625,-4.6875 l 0,-6.1875 c 0,-0.4125 -0.3375,-0.75 -0.75,-0.75 l -3.5625,0 c -0.4125,0 -0.75,0.3375 -0.75,0.75 l 0,6.375 c 0,0.9 -0.675,1.3125 -1.5,1.3125 -0.9,0 -1.6875,-0.4125 -1.6875,-1.03125 0,-0.61875 0.54375,-0.975 1.3125,-1.03125 0.3,-0.01875 0.5625,-0.2625 0.5625,-0.5625 l 0,-1.125 c 0,-0.3 -0.2625,-0.5625 -0.5625,-0.5625 l -0.1875,0 c -0.6,0 -1.125,-0.1875 -1.125,-0.84375 0,-0.75 0.7125,-0.84375 1.125,-0.84375 0.3,0 0.45,0.09375 0.5625,0.09375 0.1125,0 0.1875,-0.05625 0.1875,-0.28125 l 0,-1.5 c 0,-0.28125 -0.28125,-0.45 -0.5625,-0.5625 -0.54375,-0.20625 -1.2375,-0.375 -2.0625,-0.375 -2.775,0 -4.125,1.6125 -4.125,3.375 0,0.95625 0.4875,1.6875 1.3125,2.175 -0.80625,0.46875 -1.3125,1.2 -1.3125,2.325 z"
         style="font-size:22.5px"
         id="path3399" />
      <path
         d="m 120.54883,25.9375 0,1.125 c 0,0.3 0.2625,0.5625 0.5625,0.5625 l 0.375,0 0,0.75 c 0,0.65625 0.5625,1.125 1.6875,1.125 l 4.6875,0 c 1.125,0 1.6875,-0.46875 1.6875,-1.125 l 0,-2.4375 c 0,-0.3 -0.2625,-0.5625 -0.5625,-0.5625 l -2.25,0 c -0.3,0 -0.5625,0.2625 -0.5625,0.5625 l 0,1.875 -1.3125,0 0,-1.3125 c 0,-0.675 -0.45,-1.125 -1.125,-1.125 l -2.625,0 c -0.3,0 -0.5625,0.2625 -0.5625,0.5625 z"
         style="font-size:22.5px"
         id="path3401" />
      <path
         d="m 125.42383,10.75 c 0,0.3 0.2625,0.5625 0.5625,0.5625 l 2.625,0 c 0.3,0 0.5625,-0.2625 0.5625,-0.5625 l 0,-3.1875 c 0,-0.3 -0.2625,-0.5625 -0.5625,-0.5625 l -2.625,0 c -0.3,0 -0.5625,0.2625 -0.5625,0.5625 l 0,3.1875 z"
         style="font-size:22.5px"
         id="path3403" />
      <path
         d="m 144.45508,13.75 c 0,-0.4125 -0.3375,-0.75 -0.75,-0.75 l -3.75,0 c -0.4125,0 -0.75,0.3375 -0.75,0.75 l 0,5.49375 c -0.24375,0.76875 -0.65625,1.25625 -1.3125,1.25625 -0.6375,0 -0.9375,-0.35625 -0.9375,-1.5 l 0,-5.25 c 0,-0.4125 -0.3375,-0.75 -0.75,-0.75 l -3.75,0 c -0.4125,0 -0.75,0.3375 -0.75,0.75 l 0,6.375 c 0,2.7375 1.70625,4.3125 4.125,4.3125 2.11875,0 3.225,-1.2375 3.75,-2.1 l 0,1.1625 c 0,0.4125 0.3375,0.75 0.75,0.75 l 3.375,0 c 0.4125,0 0.75,-0.3375 0.75,-0.75 l 0,-9.75 z"
         style="font-size:22.5px"
         id="path3405" />
      <path
         d="m 134.15723,10.75 c 0,0.3 0.2625,0.5625 0.5625,0.5625 l 8.4375,0 c 0.3,0 0.5625,-0.2625 0.5625,-0.5625 l 0,-3.1875 c 0,-0.3 -0.2625,-0.5625 -0.5625,-0.5625 l -2.625,0 c -0.3,0 -0.5625,0.2625 -0.5625,0.5625 l 0,1.6875 c 0,0 -0.45,-0.75 -1.5,-0.75 l -3.75,0 c -0.3,0 -0.5625,0.2625 -0.5625,0.5625 l 0,1.6875 z"
         style="font-size:22.5px"
         id="path3407" />
      <path
         d="m 140.15723,5.6875 c 0,0.3 0.2625,0.5625 0.5625,0.5625 l 2.25,0 c 0.3,0 0.5625,-0.2625 0.5625,-0.5625 l 0,-2.8125 c 0,-0.3 -0.2625,-0.5625 -0.5625,-0.5625 l -2.25,0 c -0.3,0 -0.5625,0.2625 -0.5625,0.5625 l 0,2.8125 z"
         style="font-size:22.5px"
         id="path3409" />
    </g>
    <path
       inkscape:connector-curvature="0"
       style="fill:#000000"
       id="logo-5"
       d="M 0,30.476 C 0,31.314 0.686,32 1.524,32 l 16.456,0 0,-6.59 C 17.37,25.524 16.686,25.6 16,25.6 10.63,25.6 6.4000005,21.37 6.4000005,16 6.4000005,10.63 10.63,6.3999999 16,6.3999999 21.37,6.3999999 25.6,10.63 25.6,16 l 0,16 4.876,0 C 31.314,32 32,31.314 32,30.476 L 32,1.5239999 C 32,0.68599992 31.314,-7.9999999e-8 30.476,-7.9999999e-8 l -28.952,0 C 0.686,-7.9999999e-8 0,0.68599992 0,1.5239999 Z M 12,16 c 0,2.248 1.752,4 4,4 2.248,0 4,-1.752 4,-4 0,-2.248 -1.752,-4 -4,-4 -2.248,0 -4,1.752 -4,4 z" />
  </g>
</svg>
