<?xml version="1.0" encoding="UTF-8" standalone="no"?>
<!-- Generator: Adobe Illustrator 16.0.4, SVG Export Plug-In . SVG Version: 6.00 Build 0)  -->

<svg
   xmlns:dc="http://purl.org/dc/elements/1.1/"
   xmlns:cc="http://creativecommons.org/ns#"
   xmlns:rdf="http://www.w3.org/1999/02/22-rdf-syntax-ns#"
   xmlns:svg="http://www.w3.org/2000/svg"
   xmlns="http://www.w3.org/2000/svg"
   xmlns:sodipodi="http://sodipodi.sourceforge.net/DTD/sodipodi-0.dtd"
   xmlns:inkscape="http://www.inkscape.org/namespaces/inkscape"
   version="1.1"
   id="Layer_1"
   x="0px"
   y="0px"
   width="300"
   height="200"
   viewBox="0 0 300 200"
   enable-background="new 0 0 3013.86 2739.18"
   xml:space="preserve"
   inkscape:version="0.91 r13725"
   sodipodi:docname="monamafia-logo.svg"><metadata
     id="metadata17"><rdf:RDF><cc:Work
         rdf:about=""><dc:format>image/svg+xml</dc:format><dc:type
           rdf:resource="http://purl.org/dc/dcmitype/StillImage" /><dc:title /></cc:Work></rdf:RDF></metadata><defs
     id="defs15" /><sodipodi:namedview
     pagecolor="#ffffff"
     bordercolor="#666666"
     borderopacity="1"
     objecttolerance="10"
     gridtolerance="10"
     guidetolerance="10"
     inkscape:pageopacity="0"
     inkscape:pageshadow="2"
     inkscape:window-width="1366"
     inkscape:window-height="718"
     id="namedview13"
     showgrid="false"
     inkscape:zoom="1.3450006"
     inkscape:cx="-176.22663"
     inkscape:cy="78.433266"
     inkscape:window-x="0"
     inkscape:window-y="24"
     inkscape:window-maximized="1"
     inkscape:current-layer="layer1"
     inkscape:showpageshadow="false" /><g
     inkscape:groupmode="layer"
     id="layer1"
     inkscape:label="back"
     transform="translate(0,-2539.1799)"><path
       style="fill:#ffffff;fill-opacity:0.89999998;stroke:none"
       d="m 0,2539.1799 300,0 0,200 -300,0 z"
       id="rect4203"
       inkscape:connector-curvature="0" /></g><g
     inkscape:groupmode="layer"
     id="layer2"
     inkscape:label="fore"
     transform="translate(0,-2539.1799)"><g
       transform="matrix(0.113109,0,0,0.113109,-28.899778,2479.5202)"
       id="g4164"><path
         style="fill:#009bcc"
         inkscape:connector-curvature="0"
         id="path3"
         d="m 1564.492,1131.538 c 0,131.893 -106.77,238.662 -238.662,238.662 -132.59,0 -239.36,-106.769 -239.36,-238.662 0,-131.892 106.771,-239.36 239.36,-239.36 131.892,0 238.662,107.468 238.662,239.36" /><polygon
         style="fill:#231f20"
         id="polygon5"
         points="977.606,1125.955 977.606,1357.639 1086.47,1357.639 1086.47,904.041 977.606,904.041 847.11,1160.847 718.706,906.135 718.706,904.041 609.145,904.041 609.145,1357.639 718.706,1357.639 718.706,1128.049 823.383,1357.639 870.836,1357.639 " /><path
         style="fill:#231f20"
         inkscape:connector-curvature="0"
         id="path7"
         d="m 2307.004,1295.531 30.705,62.108 120.727,0 -217.029,-453.598 -82.346,0 -150.74,303.348 0,-303.348 -108.863,0 0,282.627 -226.103,-282.627 -108.862,0 0,453.598 108.862,0 0,-271.461 226.103,271.461 34.2,0 74.663,0 48.157,0 30.706,-62.108 219.82,0 z m -110.259,-234.475 67.69,145.849 -131.893,0 64.203,-145.849 z" /><path
         style="fill:#231f20"
         inkscape:connector-curvature="0"
         id="path9"
         d="m 1656.569,1522.586 0,306.517 -200.29,-418.613 -94.482,0 -204.977,412.49 0,-412.491 -124.908,0 -149.73,294.654 -147.328,-292.253 0,-2.4 -125.709,0 0,520.45 125.709,0 0,-263.428 120.104,263.428 54.447,0 122.507,-265.83 0,265.83 71.26,0 53.648,0 87.275,0 35.23,-71.262 252.219,0 35.23,71.262 89.795,0 48.726,0 76.184,0 0,-177.754 185.134,0 0,-112.097 -185.134,0 0,-118.503 241.983,0 0,-112.097 -366.893,0 0,112.097 z m -325.199,235.404 73.665,-167.346 77.667,167.346 -151.332,0 z" /><path
         style="fill:#231f20"
         inkscape:connector-curvature="0"
         id="path11"
         d="m 2481.976,1410.489 -94.481,0 -201.938,406.373 0,-406.373 -124.908,0 0,520.45 68.221,0 56.688,0 84.235,0 35.23,-71.262 252.218,0 35.23,71.262 138.521,0 -249.016,-520.45 z m -124.91,347.501 73.665,-167.346 77.667,167.346 -151.332,0 z" /></g></g></svg>